<svg xmlns="http://www.w3.org/2000/svg" xmlns:svg="http://www.w3.org/2000/svg" id="Layer_1" x="0" y="0" version="1.1" viewBox="0 0 200 200" style="enable-background:new 0 0 200 200" xml:space="preserve"><metadata id="metadata4221"/><defs id="defs4219"><filter style="color-interpolation-filters:sRGB" id="filter9897"><feFlood id="feFlood9899" flood-color="#000" flood-opacity=".31" result="flood"/><feComposite id="feComposite9901" in="flood" in2="SourceGraphic" operator="in" result="composite1"/><feGaussianBlur id="feGaussianBlur9903" in="composite1" result="blur" stdDeviation="2"/><feOffset id="feOffset9905" dx="0" dy="2" result="offset"/><feComposite id="feComposite9907" in="SourceGraphic" in2="offset" operator="over" result="composite2"/></filter></defs><style id="style4209" type="text/css">.st0{fill:#4264fb}</style><g id="layer4" style="display:none"><g id="g4211"><path id="path4213" d="m 100,27 c -40.3,0 -73,32.7 -73,73 0,40.3 32.7,73 73,73 40.3,0 73,-32.7 73,-73 0,-40.3 -32.7,-73 -73,-73 z m 34.6,90.9 c -25,25 -69.5,17 -69.5,17 0,0 -8,-44.5 17,-69.5 C 96,51.5 119,52 133.5,66.5 c 14.5,14.5 15,37.5 1.1,51.4 l 0,0 z" class="st0" style="fill:#4264fb"/><polygon id="polygon4215" points="108.4 113.5 115.5 98.8 130.2 91.6 115.5 84.5 108.4 69.8 101.2 84.5 86.5 91.6 101.2 98.8" class="st0" style="fill:#4264fb"/></g></g><g id="layer5"><g id="g9615" style="filter:url(#filter9897)"><g id="g4904" transform="matrix(1.0666667,0,0,1.0666667,-6.66667,-6.66667)"><path id="path4300" d="m 100,27.302941 c -40.133824,0 -72.697059,32.611765 -72.697059,72.697059 0,40.08529 32.611765,72.69706 72.697059,72.69706 40.08529,0 72.69706,-32.61177 72.69706,-72.69706 0,-40.133824 -32.56324,-72.697059 -72.69706,-72.697059 z m 34.50441,90.604409 c -15.14117,15.14118 -37.561763,18.15 -52.65441,18.15 -5.483824,0 -11.064706,-0.38823 -16.5,-1.26176 0,0 -8.007353,-44.307355 16.791176,-69.202943 6.502942,-6.502941 15.335295,-10.045588 24.604414,-10.045588 9.99706,0 19.55735,4.027941 26.64265,11.161765 14.46176,14.413235 14.85,37.319116 1.11617,51.198526 z" class="st0" style="fill:#4264fb"/><path id="path4302" d="m 100,17.5 c -45.569118,0 -82.5,37.027941 -82.5,82.5 0,45.47206 36.930882,82.5 82.5,82.5 45.56912,0 82.5,-36.93088 82.5,-82.5 C 182.40294,54.527941 145.56912,17.5 100,17.5 Z m 0,155.19706 c -40.133824,0 -72.697059,-32.61177 -72.697059,-72.69706 0,-40.085294 32.563235,-72.745588 72.697059,-72.745588 40.13382,0 72.69706,32.611764 72.69706,72.697059 0,40.279409 -32.56324,72.745589 -72.69706,72.745589 z" class="st1" style="fill:#fff;fill-opacity:1"/><path id="path4304" d="M 133.29118,66.708824 C 118.82941,52.247059 95.875,51.761765 82.141176,65.544118 57.294118,90.439706 65.35,134.74706 65.35,134.74706 c 0,0 44.30735,8.00735 69.20294,-16.79118 13.6853,-13.92794 13.29706,-36.833821 -1.26176,-51.247056 z m -17.8103,32.12647 -7.13382,14.704416 -7.0853,-14.704416 -14.607348,-7.133823 14.607348,-7.085295 7.0853,-14.704411 7.13382,14.704411 14.60736,7.085295 -14.60736,7.133823 z" class="st1" style="fill:#fff;fill-opacity:1"/><polygon id="polygon4306" points="17.26 16.76 14.25 15.28 17.26 13.83 18.72 10.8 20.19 13.83 23.2 15.28 20.19 16.76 18.72 19.78" class="st0" style="fill:#4264fb" transform="matrix(4.8529412,0,0,4.8529412,17.5,17.5)"/></g></g></g></svg>