<svg xmlns="http://www.w3.org/2000/svg" xmlns:svg="http://www.w3.org/2000/svg" id="svg3840" width="40" height="40" version="1.1"><metadata id="metadata3845"/><g id="layer1" transform="translate(0,-1012.3622)"><g id="g3811" transform="translate(0,1012.3622)"><g id="g3802"><g id="g3794"><g id="layer1-7" transform="translate(0,-1012.3622)"><g style="stroke-width:0;stroke-miterlimit:4" id="g3763" stroke-miterlimit="4"><path id="path2987" d="M 5,0 18.03125,30.40625 A 5,5 0 0 0 15,35 5,5 0 0 0 25,35 5,5 0 0 0 21.96875,30.40625 L 35,0 5,0 z" transform="translate(0,1012.3622)" style="color:#000;fill:#000;fill-opacity:1;fill-rule:nonzero;enable-background:accumulate"/><path id="path3759" d="m 25,35 a 5,5 0 1 1 -10,0 5,5 0 1 1 10,0 z" transform="matrix(0.39999698,0,0,0.39999698,12.00006,1033.3623)" style="color:#000;fill:#fff;fill-opacity:1;fill-rule:nonzero;enable-background:accumulate"/><rect id="rect3761" width="40" height="40" x="0" y="0" transform="translate(0,1012.3622)" style="color:#000;fill-opacity:0;enable-background:accumulate"/></g></g><rect id="rect3792" width="40" height="40" x="0" y="0" style="color:#000;fill:#000;fill-opacity:0;fill-rule:nonzero;stroke:none;stroke-width:2;marker:none;visibility:visible;display:inline;overflow:visible;enable-background:accumulate"/></g></g></g></g></svg>